<?xml version="1.0" encoding="utf-8"?><svg xml:space="preserve" viewBox="0 0 100 100" y="0" x="0" xmlns="http://www.w3.org/2000/svg" id="圖層_1" version="1.1" width="200px" height="200px" xmlns:xlink="http://www.w3.org/1999/xlink" style="width:100%;height:100%;background-size:initial;background-repeat-y:initial;background-repeat-x:initial;background-position-y:initial;background-position-x:initial;background-origin:initial;background-image:initial;background-color:rgb(255, 255, 255);background-clip:initial;background-attachment:initial;animation-play-state:paused" ><g class="ldl-scale" style="transform-origin:50% 50%;transform:rotate(0deg) scale(0.8, 0.8);animation-play-state:paused" ><g style="animation-play-state:paused" ><path fill="#c33737" d="M60.27 43.674A23.131 23.131 0 0 0 50 41.277c-3.704 0-7.189.875-10.27 2.397C32.473 47.259 27.5 54.505 27.5 62.88v14.467c0 2.984 2.52 5.403 5.628 5.403h33.745c3.108 0 5.628-2.419 5.628-5.403V62.88c-.001-8.375-4.974-15.621-12.231-19.206z" style="fill:rgb(195, 55, 55);animation-play-state:paused" ></path>
<path fill="#333" d="M60.27 43.674a23.23 23.23 0 0 0-3.261-1.307L50 52.445l-7.009-10.078a23.23 23.23 0 0 0-3.261 1.307c-4.241 2.095-7.691 5.446-9.836 9.537A45.94 45.94 0 0 0 50 57.815a45.94 45.94 0 0 0 20.106-4.604c-2.144-4.091-5.595-7.442-9.836-9.537z" style="fill:rgb(51, 51, 51);animation-play-state:paused" ></path>
<path fill="#666" d="M57.009 42.368A23.128 23.128 0 0 0 50 41.277c-2.451 0-4.803.39-7.009 1.091L50 52.445l7.009-10.077z" style="fill:rgb(102, 102, 102);animation-play-state:paused" ></path></g>
<circle fill="#c7b299" r="14.513" cy="31.763" cx="50" style="fill:rgb(199, 178, 153);animation-play-state:paused" ></circle>
<g style="animation-play-state:paused" ><ellipse fill="#f47e60" ry="2.345" rx="3.623" cy="64.377" cx="58.833" style="fill:rgb(244, 126, 96);animation-play-state:paused" ></ellipse>
<path fill="#f8b26a" d="M58.833 60.816s-2.352 1.458-2.352 6.467c1.894-1.589 3.779-3.03 4.704 0 0-5.083-2.352-6.467-2.352-6.467z" style="fill:rgb(248, 178, 106);animation-play-state:paused" ></path></g>
<metadata xmlns:d="https://loading.io/stock/" style="animation-play-state:paused" ><d:name style="animation-play-state:paused" >star trek</d:name>
<d:tags style="animation-play-state:paused" >officer,interstellar,USS Enterprise,star trek,people</d:tags>
<d:license style="animation-play-state:paused" >pro</d:license>
<d:slug style="animation-play-state:paused" >tpi8gu</d:slug></metadata></g><!-- generated by https://loading.io/ --></svg>